<svg width="101" height="101" viewBox="0 0 101 101" fill="none" xmlns="http://www.w3.org/2000/svg">
<path d="M38.6098 8.49187C42.8344 -2.18899 58.5191 -2.15582 62.695 8.54281L63.8222 11.4306L66.5023 9.7444C76.4318 3.49743 89.1008 12.4127 85.9566 23.4345L85.108 26.4095L88.3043 26.5642C100.146 27.1372 104.96 41.5292 95.6968 48.6643L93.1964 50.5902L95.688 52.5266C104.919 59.7008 100.039 74.0723 88.195 74.5953L84.998 74.7364L85.8332 77.715C88.9271 88.75 76.2177 97.6116 66.3167 91.3227L63.6443 89.6252L62.504 92.5081C58.2794 103.189 42.5947 103.156 38.4187 92.4572L37.2916 89.5694L34.6114 91.2556C24.6819 97.5026 12.0129 88.5873 15.1571 77.5655L16.0058 74.5905L12.8095 74.4358C0.967798 73.8628 -3.84633 59.4708 5.41698 52.3357L7.91731 50.4098L5.42577 48.4734C-3.80498 41.2992 1.07459 26.9277 12.9188 26.4047L16.1157 26.2636L15.2806 23.285C12.1866 12.25 24.8961 3.38843 34.797 9.67733L37.4695 11.3748L38.6098 8.49187Z" fill="#019DE3"/>
</svg>
