<svg width="101" height="100" viewBox="0 0 101 100" fill="none" xmlns="http://www.w3.org/2000/svg">
<path d="M55.834 75.3297L65.4302 98.0561L74.8786 94.0663L65.6389 72.1855L82.4357 88.9815L89.6882 81.7291L73.0966 65.1392L94.677 74.3523L98.7043 64.9197L74.7726 54.7009H100.278V44.4444H76.7808L98.7051 35.0828L94.677 25.6502L73.0941 34.8666L89.6898 18.2709L82.4382 11.0185L65.6447 27.812L74.8836 5.93199L65.4352 1.94228L55.834 24.6812V0H45.5776V24.6736L35.9797 1.94228L26.5313 5.93199L35.7686 27.8112L18.9767 11.0185L11.7251 18.2709L28.32 34.8666L6.73794 25.6502L2.70983 35.0828L24.6341 44.4444H0.278442V54.7009H26.6423L2.71067 64.9197L6.73794 74.3523L28.3175 65.1384L11.7268 81.7291L18.9792 88.9815L35.7744 72.1863L26.5363 94.0663L35.9847 98.0561L45.5776 75.338V100H55.834V75.3297Z" fill="white"/>
</svg>
