<svg width="50" height="38" viewBox="0 0 50 38" fill="none" xmlns="http://www.w3.org/2000/svg">
<path d="M22.7392 1.17283C21.7501 1.02139 16.6149 0.397944 11.9068 1.32932C11.0981 1.4896 10.4846 1.7092 10.3452 1.75337C9.46465 2.03733 6.4443 3.08481 4.01247 5.42084C4.01247 5.42084 -0.154092 9.42274 0.00441024 17.0214C0.00881308 17.2208 0.0161512 17.4379 0.0161512 17.4379C0.0249568 17.6727 0.0425682 17.9036 0.09687 18.9132C0.15851 20.0364 0.22602 21.8866 0.22015 25.3786C0.22015 25.3786 -0.0293451 32.9155 2.64025 35.8661C2.90882 36.164 3.19354 36.4101 3.49146 36.6372C4.20326 37.1812 4.89157 37.1673 4.90184 37.166C5.57841 37.1484 6.05098 36.7432 6.14197 36.6625C6.77305 36.0983 6.70554 35.3045 6.63803 33.9895C6.42816 29.9156 6.8479 29.4235 7.115 29.3452C7.13555 29.3389 7.35569 29.2771 7.50245 29.3704C7.71819 29.508 7.63014 29.8967 7.61106 29.9939C7.45549 30.7877 7.39972 35.2137 9.52336 36.4366C9.61875 36.4921 10.445 36.978 11.1656 36.742C12.011 36.4656 12.215 35.3626 12.3955 34.5359C13.0324 31.6156 13.4918 29.3288 14.8581 28.1488C16.2612 26.9372 18.9616 26.575 20.7213 27.3499C23.2133 28.4479 24.1379 31.9715 24.6897 34.0703C24.9216 34.9537 25.1432 36.1211 26.0692 36.4303C26.7708 36.665 27.6822 36.3394 28.2252 35.9381C28.6699 35.6099 28.9193 35.1935 29.1703 34.4653C29.9834 32.1166 29.1586 30.1289 29.8953 29.8551C29.932 29.8412 30.0069 29.8134 30.0905 29.8336C30.6027 29.9586 30.4545 31.6913 30.3884 32.4586C30.2886 33.6197 30.1022 34.3227 30.158 35.6402C30.1815 36.2006 30.2387 36.6032 30.5895 36.8833C31.1648 37.3427 32.1657 37.1231 32.2949 37.0941C34.6328 36.588 35.5383 33.0076 35.6909 32.4069C36.1341 30.6539 36.1576 28.5892 36.1679 27.7449C36.1826 26.4892 36.1077 24.8953 36.8973 24.6391C36.9501 24.6214 37.0822 24.5798 37.2304 24.6113C38.362 24.8561 36.9722 28.4138 38.9373 31.006C39.6124 31.8958 41.0815 33.1969 42.6137 33.0808C44.1444 32.9647 44.5054 31.5298 46.475 31.4086C46.8257 31.3872 48.0776 31.3544 48.2434 30.9076C48.2875 30.7877 48.2596 30.6249 48.4166 30.4873C48.5414 30.3788 48.7542 30.3107 48.9464 30.346C49.1475 30.3826 49.168 30.5025 49.3544 30.5315C49.5481 30.5605 49.7433 30.4659 49.8241 30.3977C50.1513 30.1239 50.009 29.3326 49.5056 28.9325C49.0242 28.5501 48.3271 28.6157 47.8281 28.6688C46.3106 28.829 45.973 29.5232 44.5671 29.8727C44.0989 29.9888 42.6063 30.3599 41.8079 29.8286C40.1481 28.723 42.1939 24.1873 42.7281 23.0047C44.0182 20.145 44.8166 20.0604 45.4608 17.8594C45.7191 16.9785 46.268 14.6779 45.521 11.9935C44.5186 8.39545 41.7713 6.22728 40.7645 5.44608C38.3209 3.54798 33.127 2.75542 22.7378 1.17157L22.7392 1.17283Z" fill="#019DE3"/>
<path d="M37.3198 13.7893C37.2846 13.7867 37.2083 13.7804 37.1158 13.8057C36.8942 13.8675 36.7826 14.0593 36.7342 14.1691C36.7254 14.1893 36.6902 14.1893 36.6814 14.1691C36.6329 14.0581 36.5214 13.8675 36.2998 13.8057C36.2088 13.7804 36.131 13.7855 36.0958 13.7893C35.7333 13.8183 35.0743 14.1919 35.0303 14.7055C34.9951 15.1169 35.3723 15.4223 35.905 15.8552C36.2073 16.1 36.4921 16.2666 36.6931 16.3714C36.7019 16.3764 36.7122 16.3764 36.721 16.3714C36.9206 16.2666 37.2068 16.1 37.5091 15.8552C38.0419 15.4223 38.419 15.1169 38.3838 14.7055C38.3398 14.1919 37.6808 13.8183 37.3183 13.7893H37.3198Z" fill="white"/>
<path d="M17.2284 10.1093C17.3076 8.28065 18.6593 6.23994 20.8548 5.3704C21.5255 5.10411 22.8611 4.57532 24.2054 4.95267C25.0816 5.19876 25.585 5.72503 26.7268 5.74649C27.2316 5.75658 27.5061 5.66067 28.0946 5.53068C28.8753 5.35904 30.6556 4.96655 31.815 5.15333C33.3119 5.39564 34.8882 6.7864 35.0144 8.16959C35.1758 9.92886 32.857 10.1888 29.7691 13.7301C27.7849 16.0056 27.1039 17.7787 24.5547 19.2149C23.6257 19.7387 22.6512 20.1034 21.7677 19.8295C20.9121 19.5645 20.46 18.7984 20.2898 18.5107C19.8378 17.7446 20.0095 17.3155 19.7394 16.3564C19.4811 15.4339 19.1084 15.0717 18.6123 14.216C18.0546 13.2568 17.1564 11.7096 17.2269 10.1093H17.2284Z" fill="white"/>
</svg>
