<svg width="150" height="46" viewBox="0 0 150 46" fill="none" xmlns="http://www.w3.org/2000/svg">
<path d="M6.59714 23.975C7.73331 23.975 8.54861 23.7689 9.04305 23.3577C9.53748 22.9466 9.78413 22.4553 9.78413 21.8861C9.78413 21.3593 9.58887 20.9322 9.20063 20.6046C8.81125 20.2783 8.23802 19.9988 7.48095 19.7663L5.80809 19.2281C4.67192 18.8479 3.66707 18.4264 2.79467 17.9626C1.92113 17.4988 1.24856 16.8976 0.774677 16.1589C0.300796 15.4202 0.064426 14.4812 0.064426 13.3417C0.064426 11.5906 0.726718 10.198 2.05244 9.16391C3.37817 8.12977 5.21888 7.61328 7.57573 7.61328C8.77471 7.61328 9.84237 7.72895 10.7787 7.96143C11.7151 8.19391 12.4516 8.53633 12.9883 8.98983C13.5249 9.44334 13.7933 9.99763 13.7933 10.6515C13.7933 11.1371 13.6825 11.554 13.4621 11.9021C13.2418 12.2503 12.962 12.5515 12.6263 12.8046C12.1421 12.4667 11.5004 12.177 10.7011 11.9342C9.90174 11.6914 9.01793 11.57 8.05075 11.57C7.08358 11.57 6.28312 11.7338 5.77841 12.0602C5.27369 12.3877 5.02134 12.8149 5.02134 13.3417C5.02134 13.7643 5.1892 14.1067 5.52605 14.3701C5.86176 14.6346 6.36762 14.8717 7.04133 15.0824L8.77699 15.6206C10.6908 16.2116 12.1638 16.9972 13.1949 17.9787C14.2249 18.9601 14.741 20.2737 14.741 21.9194C14.741 23.6922 14.0571 25.1317 12.6902 26.2391C11.3222 27.3465 9.34451 27.9008 6.757 27.9008C5.47352 27.9008 4.32707 27.7634 3.31765 27.4897C2.30823 27.216 1.5032 26.8152 0.90371 26.2872C0.304221 25.7604 0.00390625 25.1477 0.00390625 24.4514C0.00390625 23.9029 0.166054 23.4333 0.492632 23.0428C0.818069 22.6523 1.18119 22.3626 1.58085 22.1724C2.14836 22.6363 2.85861 23.0543 3.7116 23.423C4.56344 23.7929 5.52605 23.9773 6.59942 23.9773L6.59714 23.975Z" fill="#019DE3"/>
<path d="M26.2895 16.6641L17.4537 20.3357C17.2013 20.1456 16.917 19.8352 16.6018 19.4023C16.2867 18.9706 16.1279 18.4896 16.1279 17.9628C16.1279 17.3089 16.4648 16.8451 17.1374 16.5702L25.9732 12.8986C26.2256 13.1094 26.5099 13.4369 26.8251 13.8801C27.1402 14.3233 27.299 14.7974 27.299 15.3048C27.299 15.6208 27.2145 15.8957 27.0466 16.1282C26.8776 16.3606 26.6253 16.5393 26.2895 16.6664V16.6641ZM24.0811 21.5382L19.4108 21.4431V6.75684C19.6004 6.69385 19.8847 6.62972 20.2627 6.56673C20.6418 6.50375 21.0517 6.47168 21.4936 6.47168C22.4197 6.47168 23.082 6.62972 23.4817 6.94695C23.8813 7.26303 24.0811 7.84365 24.0811 8.68768V21.5382ZM19.4097 19.0061L24.08 19.1012V27.3307C23.8699 27.3937 23.5799 27.4521 23.2122 27.5048C22.8433 27.5574 22.4277 27.5838 21.9652 27.5838C21.0814 27.5838 20.4351 27.4257 20.024 27.1085C19.613 26.7913 19.4086 26.2221 19.4086 25.3999V19.0061H19.4097Z" fill="#019DE3"/>
<path d="M44.7519 19.7657C44.7519 21.4113 44.4208 22.8417 43.7573 24.0545C43.0951 25.2684 42.1633 26.2018 40.9643 26.8557C39.7653 27.5096 38.3551 27.8372 36.7359 27.8372C35.1167 27.8372 33.7328 27.5154 32.5224 26.8718C31.312 26.2281 30.3768 25.3005 29.7133 24.0866C29.051 22.8738 28.7188 21.4331 28.7188 19.7668C28.7188 18.1005 29.0556 16.6701 29.7282 15.478C30.4007 14.2858 31.3428 13.357 32.5532 12.6928C33.7624 12.0286 35.1567 11.6953 36.7348 11.6953C38.3128 11.6953 39.7322 12.0274 40.9323 12.6928C42.1313 13.357 43.0676 14.2961 43.7414 15.51C44.4139 16.724 44.7508 18.1429 44.7508 19.7668L44.7519 19.7657ZM36.7359 15.3978C35.747 15.3978 34.9637 15.778 34.3848 16.5373C33.8058 17.2966 33.5169 18.3731 33.5169 19.7657C33.5169 21.1583 33.8013 22.2611 34.3688 23.0101C34.9363 23.759 35.7253 24.1335 36.7359 24.1335C37.7465 24.1335 38.5344 23.7533 39.103 22.994C39.6717 22.2348 39.9549 21.1583 39.9549 19.7657C39.9549 18.3731 39.6705 17.3241 39.103 16.5533C38.5355 15.7837 37.7465 15.3978 36.7359 15.3978Z" fill="#019DE3"/>
<path d="M62.1715 17.5187V20.494H57.4692V17.6768C57.4692 16.8969 57.2431 16.3208 56.7909 15.9521C56.3387 15.5833 55.7438 15.3978 55.0073 15.3978C54.4809 15.3978 53.9979 15.4665 53.556 15.6039C53.1141 15.7414 52.7144 15.9051 52.357 16.0941V20.494H47.6867V15.557C47.6867 15.0302 47.7975 14.5916 48.0178 14.2434C48.2382 13.8953 48.5591 13.5838 48.9804 13.3101C49.653 12.8463 50.5163 12.4615 51.5679 12.1545C52.6196 11.8488 53.7775 11.6953 55.0393 11.6953C57.3116 11.6953 59.0678 12.1969 60.3091 13.199C61.5503 14.2011 62.1715 15.6417 62.1715 17.5187ZM47.6867 19.0373H52.357V27.3298C52.1469 27.3928 51.8523 27.4512 51.4732 27.5039C51.0941 27.5566 50.6841 27.5829 50.2422 27.5829C49.3584 27.5829 48.7121 27.4249 48.301 27.1077C47.8899 26.7904 47.6855 26.2213 47.6855 25.399V19.0373H47.6867ZM57.4692 19.0373H62.1715V27.3298C61.9614 27.3928 61.6668 27.4512 61.2877 27.5039C60.9086 27.5566 60.4986 27.5829 60.0567 27.5829C59.1729 27.5829 58.5209 27.4249 58.0995 27.1077C57.6782 26.7916 57.4681 26.2213 57.4681 25.399V19.0373H57.4692Z" fill="#019DE3"/>
<path d="M65.6738 7.80161C65.6738 7.0847 65.9205 6.48346 66.4161 5.99789C66.9105 5.51232 67.5362 5.26953 68.2933 5.26953C69.0504 5.26953 69.7024 5.51232 70.1866 5.99789C70.6707 6.48346 70.9128 7.0847 70.9128 7.80161C70.9128 8.51852 70.6707 9.09914 70.1866 9.60533C69.7024 10.1115 69.0709 10.3646 68.2933 10.3646C67.5157 10.3646 66.9093 10.1115 66.4161 9.60533C65.9216 9.09914 65.6738 8.4979 65.6738 7.80161ZM70.6285 21.4435H65.9582V12.3596C66.1477 12.2966 66.4366 12.2325 66.826 12.1695C67.2154 12.1065 67.631 12.0744 68.0729 12.0744C68.9773 12.0744 69.6293 12.2279 70.0301 12.5337C70.4298 12.8394 70.6296 13.4258 70.6296 14.2904V21.4435H70.6285ZM65.9582 19.0064H70.6285V27.331C70.4389 27.394 70.1546 27.4524 69.7766 27.5051C69.3975 27.5578 68.9876 27.5841 68.5457 27.5841C67.6413 27.5841 66.9836 27.4261 66.5736 27.1089C66.1637 26.7916 65.9582 26.2225 65.9582 25.4002V19.0064Z" fill="#019DE3"/>
<path d="M79.1487 21.5061L74.4784 21.4111V6.75684C74.6679 6.69385 74.9522 6.62972 75.3302 6.56673C75.7082 6.50375 76.1192 6.47168 76.5611 6.47168C77.4655 6.47168 78.1232 6.62972 78.5332 6.94695C78.9431 7.26417 79.1487 7.84365 79.1487 8.68768V21.5061ZM74.4772 18.974L79.1475 19.0691V27.3295C78.9374 27.3925 78.6428 27.4509 78.2637 27.5036C77.8846 27.5563 77.4747 27.5826 77.0327 27.5826C76.1489 27.5826 75.5026 27.4246 75.0915 27.1074C74.6805 26.7901 74.4761 26.221 74.4761 25.3987V18.974H74.4772ZM81.1675 21.2851L77.791 19.1332L84.9232 11.9172C85.8698 11.939 86.6326 12.16 87.2115 12.5814C87.7904 13.004 88.0793 13.5308 88.0793 14.1641C88.0793 14.7127 87.8898 15.204 87.5118 15.6357C87.1327 16.0686 86.5538 16.6229 85.7761 17.2974L81.1686 21.2851H81.1675ZM77.9805 19.7974L81.7042 18.1518L88.6788 24.9246C88.5943 25.7686 88.342 26.4283 87.9217 26.9024C87.5004 27.3776 86.9009 27.6147 86.1233 27.6147C85.5558 27.6147 85.0351 27.4727 84.5612 27.1875C84.0873 26.9024 83.5883 26.4328 83.0619 25.7789L77.9805 19.7974Z" fill="#019DE3"/>
<path d="M5.58562 40.7328C5.58562 41.2458 5.46116 41.6879 5.21108 42.0578C4.96101 42.4288 4.6036 42.7129 4.13771 42.9098C3.67183 43.1068 3.11573 43.2053 2.47057 43.2053C2.15541 43.2053 1.85509 43.1881 1.56734 43.1526C1.27958 43.1171 1.0101 43.0644 0.756599 42.9957C0.503101 42.927 0.271299 42.8434 0.0634766 42.7438V41.4062C0.414035 41.5596 0.804558 41.6993 1.23733 41.823C1.67011 41.9467 2.11087 42.0097 2.55849 42.0097C2.92389 42.0097 3.22763 41.9616 3.46971 41.8642C3.71179 41.768 3.89107 41.6295 4.00982 41.4497C4.12744 41.2699 4.18681 41.0603 4.18681 40.8198C4.18681 40.5633 4.1183 40.3468 3.98013 40.1693C3.84197 39.9918 3.63529 39.8292 3.35781 39.6815C3.08033 39.5337 2.7332 39.3745 2.31641 39.205C2.03322 39.0905 1.7626 38.96 1.50567 38.8145C1.24761 38.6691 1.01923 38.4973 0.818261 38.2992C0.61729 38.1022 0.45971 37.8686 0.343238 37.5983C0.226766 37.328 0.169672 37.0097 0.169672 36.6432C0.169672 36.1542 0.286144 35.7362 0.52023 35.3892C0.754316 35.0422 1.08432 34.7753 1.51138 34.5898C1.93845 34.4043 2.43631 34.3115 3.00725 34.3115C3.45944 34.3115 3.88536 34.3585 4.28502 34.4535C4.68468 34.5486 5.07634 34.6826 5.4623 34.8555L5.01354 35.9973C4.65955 35.8518 4.31585 35.735 3.98356 35.648C3.65127 35.561 3.31213 35.5174 2.96614 35.5174C2.66697 35.5174 2.41347 35.5632 2.20451 35.6537C1.99554 35.7442 1.83796 35.8713 1.72948 36.0351C1.621 36.1988 1.56734 36.3935 1.56734 36.618C1.56734 36.8699 1.629 37.083 1.75346 37.2536C1.87679 37.4254 2.06976 37.5823 2.33126 37.7243C2.59275 37.8663 2.9296 38.0243 3.34296 38.1973C3.81913 38.3942 4.22336 38.6015 4.55564 38.8191C4.88793 39.0356 5.14257 39.2955 5.31956 39.5967C5.49655 39.899 5.58562 40.2758 5.58562 40.7293V40.7328Z" fill="#019DE3"/>
<path d="M9.53839 42.0819C9.71881 42.0819 9.89808 42.0648 10.0751 42.0316C10.2521 41.9983 10.4131 41.9571 10.5592 41.9102V42.9638C10.4062 43.0313 10.2075 43.0886 9.96317 43.1355C9.71881 43.1825 9.46531 43.2065 9.20154 43.2065C8.83157 43.2065 8.49928 43.1447 8.20467 43.0199C7.91007 42.8962 7.67598 42.682 7.50241 42.3774C7.32885 42.0739 7.24321 41.6536 7.24321 41.1165V37.5961H6.35254V36.9743L7.3083 36.483L7.76276 35.0801H8.6363V36.5357H10.5067V37.595H8.6363V41.0982C8.6363 41.4292 8.71852 41.6765 8.88409 41.838C9.04967 41.9995 9.26777 42.0808 9.53953 42.0808L9.53839 42.0819Z" fill="#019DE3"/>
<path d="M17.6684 39.7982C17.6684 40.3422 17.5976 40.8254 17.4561 41.248C17.3145 41.6706 17.1078 42.0256 16.8372 42.3165C16.5654 42.6063 16.2388 42.8273 15.8574 42.9796C15.476 43.1319 15.0455 43.2075 14.5648 43.2075C14.116 43.2075 13.705 43.1319 13.3316 42.9796C12.9582 42.8273 12.6339 42.6074 12.361 42.3165C12.0881 42.0268 11.8757 41.6706 11.7272 41.248C11.5776 40.8254 11.5034 40.3422 11.5034 39.7982C11.5034 39.0767 11.6279 38.464 11.878 37.9613C12.128 37.4585 12.4843 37.0749 12.949 36.8103C13.4126 36.5458 13.9653 36.4141 14.6071 36.4141C15.2088 36.4141 15.7398 36.5458 16.2 36.8103C16.6602 37.0749 17.0199 37.4596 17.2802 37.9647C17.5394 38.4697 17.6696 39.0813 17.6696 39.7993L17.6684 39.7982ZM12.9308 39.7982C12.9308 40.2757 12.989 40.6834 13.1043 41.0236C13.2208 41.3626 13.4001 41.6225 13.6444 41.8012C13.8888 41.981 14.2028 42.0703 14.5888 42.0703C14.9747 42.0703 15.2888 41.981 15.5331 41.8012C15.7763 41.6214 15.9556 41.3626 16.0698 41.0236C16.184 40.6846 16.2411 40.2757 16.2411 39.7982C16.2411 39.3206 16.184 38.9152 16.0698 38.582C15.9556 38.2487 15.7763 37.9945 15.5331 37.8181C15.2888 37.6429 14.9725 37.5547 14.5831 37.5547C14.0087 37.5547 13.5896 37.7482 13.3259 38.1342C13.0621 38.5213 12.9308 39.0756 12.9308 39.797V39.7982Z" fill="#019DE3"/>
<path d="M24.6013 43.0819L23.7757 40.0345C23.7369 39.8844 23.6889 39.7035 23.6341 39.4905C23.5793 39.2775 23.5245 39.0576 23.4686 38.8309C23.4137 38.6041 23.3635 38.3945 23.3178 38.201C23.2722 38.0074 23.2379 37.8574 23.2151 37.7509H23.1682C23.1488 37.8574 23.1169 38.0074 23.0735 38.201C23.0301 38.3945 22.981 38.6052 22.9262 38.8343C22.8714 39.0633 22.8165 39.2855 22.764 39.5031C22.7103 39.7195 22.6624 39.9051 22.619 40.0597L21.7523 43.083H20.2302L18.4009 36.5324H19.8054L20.655 39.7871C20.7098 40.0081 20.7646 40.2463 20.8171 40.5029C20.8696 40.7594 20.9164 41.0045 20.9553 41.237C20.9941 41.4694 21.0238 41.6607 21.0443 41.8107H21.0912C21.1071 41.7042 21.1288 41.5691 21.1562 41.4053C21.1836 41.2415 21.2156 41.0698 21.251 40.89C21.2864 40.7102 21.3218 40.5407 21.3572 40.3815C21.3926 40.2223 21.4257 40.0929 21.4577 39.9944L22.4603 36.5324H23.9767L24.9382 39.9944C24.9815 40.1444 25.0284 40.3322 25.0798 40.559C25.1311 40.7857 25.1768 41.0125 25.2179 41.2392C25.259 41.466 25.2853 41.655 25.2979 41.8038H25.3447C25.3607 41.6698 25.3892 41.4878 25.4303 41.2564C25.4714 41.0262 25.5194 40.7789 25.5753 40.5166C25.6301 40.2544 25.6872 40.0104 25.7466 39.786L26.6133 36.5312H27.9938L26.1531 43.0819H24.6013Z" fill="#019DE3"/>
<path d="M31.6749 36.4133C32.5005 36.4133 33.1251 36.5965 33.5476 36.9641C33.9701 37.3306 34.1813 37.9032 34.1813 38.6796V43.0876H33.1959L32.9298 42.1588H32.883C32.698 42.3959 32.5073 42.5906 32.3109 42.7452C32.1145 42.8986 31.8873 43.0143 31.6292 43.091C31.3712 43.1678 31.0583 43.2067 30.6883 43.2067C30.2989 43.2067 29.9507 43.1345 29.6435 42.9902C29.3363 42.8459 29.0954 42.6261 28.9184 42.3306C28.7414 42.0351 28.6523 41.6595 28.6523 41.206C28.6523 40.5315 28.9036 40.0241 29.4048 39.6851C29.9061 39.3462 30.6643 39.1583 31.6795 39.1228L32.8122 39.0816V38.738C32.8122 38.2845 32.7072 37.9604 32.4971 37.768C32.287 37.5745 31.9912 37.4783 31.6087 37.4783C31.2821 37.4783 30.9658 37.5253 30.6586 37.6203C30.3515 37.7154 30.0523 37.831 29.7623 37.9696L29.3135 36.987C29.6321 36.8175 29.9952 36.6789 30.4017 36.5724C30.8094 36.4659 31.233 36.4121 31.6726 36.4121L31.6749 36.4133ZM32.8077 39.9577L31.9638 39.9875C31.2718 40.0115 30.7854 40.1295 30.5068 40.3425C30.227 40.5555 30.0877 40.8475 30.0877 41.2186C30.0877 41.5415 30.1836 41.7775 30.3766 41.9252C30.5696 42.0729 30.8231 42.1474 31.1382 42.1474C31.6178 42.1474 32.0163 42.0099 32.3326 41.7362C32.6489 41.4625 32.8077 41.0583 32.8077 40.5257V39.9577Z" fill="#019DE3"/>
<path d="M39.4327 36.4131C39.5423 36.4131 39.6634 36.4188 39.7924 36.4303C39.9226 36.4417 40.0345 36.4577 40.1293 36.4772L39.9991 37.7793C39.9169 37.7553 39.8152 37.7381 39.6953 37.7255C39.5754 37.7141 39.4681 37.7083 39.3733 37.7083C39.1255 37.7083 38.8892 37.7484 38.6654 37.8297C38.4416 37.911 38.2429 38.0324 38.0693 38.1962C37.8957 38.36 37.761 38.5638 37.6628 38.8089C37.5646 39.054 37.5155 39.338 37.5155 39.6609V43.0874H36.1235V36.5368H37.2095L37.3979 37.6912H37.463C37.5931 37.4587 37.7541 37.2457 37.9471 37.0521C38.1401 36.8586 38.3605 36.704 38.6106 36.5872C38.8606 36.4703 39.1347 36.4131 39.4339 36.4131H39.4327Z" fill="#019DE3"/>
<path d="M45.712 43.0886H40.7505V42.2308L44.0482 37.6098H40.9515V36.5391H45.6183V37.4862L42.3857 42.0189H45.7131V43.0897L45.712 43.0886Z" fill="#019DE3"/>
<path d="M46.1374 36.5381H47.6481L48.9875 40.2772C49.0469 40.4467 49.1006 40.6139 49.1497 40.7777C49.1988 40.9415 49.2422 41.1018 49.2798 41.2598C49.3175 41.4179 49.3472 41.5759 49.3712 41.7328H49.4066C49.4454 41.5278 49.5014 41.2976 49.5744 41.0434C49.6475 40.7891 49.7286 40.5338 49.8188 40.2772L51.1046 36.5381H52.597L49.7948 43.9877C49.6338 44.4138 49.4363 44.7779 49.2022 45.0791C48.9681 45.3815 48.6918 45.6094 48.3732 45.7651C48.0546 45.9209 47.6903 45.9987 47.2815 45.9987C47.0851 45.9987 46.9139 45.9873 46.7677 45.9667C46.6227 45.9449 46.4982 45.922 46.3966 45.8991V44.7871C46.4788 44.8066 46.5838 44.8249 46.7095 44.8409C46.8351 44.857 46.9652 44.865 47.0988 44.865C47.3466 44.865 47.5613 44.8157 47.7417 44.7172C47.9221 44.6188 48.0763 44.479 48.2019 44.3004C48.3275 44.1206 48.4314 43.9167 48.5148 43.6877L48.7443 43.0727L46.1362 36.5404L46.1374 36.5381Z" fill="#019DE3"/>
<path d="M57.9762 41.2183C57.9762 41.6477 57.8723 42.0107 57.6634 42.3074C57.4544 42.6028 57.1507 42.8273 56.7522 42.9785C56.3525 43.1308 55.8638 43.2064 55.286 43.2064C54.8292 43.2064 54.4376 43.1743 54.1087 43.109C53.7798 43.0437 53.4704 42.9441 53.1792 42.8101V41.6088C53.4898 41.7542 53.8392 41.8813 54.2263 41.9878C54.6134 42.0943 54.9799 42.1482 55.3271 42.1482C55.7838 42.1482 56.1116 42.076 56.3125 41.9317C56.5135 41.7874 56.6128 41.595 56.6128 41.3545C56.6128 41.2125 56.5729 41.0854 56.4918 40.9732C56.4107 40.8609 56.2611 40.7441 56.043 40.6239C55.8249 40.5036 55.5052 40.3582 55.0839 40.1887C54.6705 40.0226 54.3222 39.8577 54.0402 39.6917C53.757 39.5256 53.5423 39.3264 53.3973 39.0916C53.2511 38.8568 53.1792 38.5556 53.1792 38.1892C53.1792 37.6097 53.4087 37.1688 53.8666 36.8664C54.3245 36.5641 54.932 36.4141 55.6868 36.4141C56.0876 36.4141 56.4667 36.4541 56.8229 36.5355C57.1792 36.6168 57.5275 36.7336 57.8701 36.887L57.4339 37.9349C57.1392 37.8044 56.8424 37.6979 56.5455 37.612C56.2486 37.5272 55.9471 37.4848 55.64 37.4848C55.2825 37.4848 55.0096 37.5398 54.8224 37.6509C54.6351 37.7608 54.5426 37.9189 54.5426 38.1239C54.5426 38.2773 54.5883 38.4079 54.6785 38.5144C54.7687 38.6209 54.9251 38.7274 55.1478 38.8339C55.3705 38.9404 55.6799 39.0721 56.0773 39.2302C56.4667 39.3802 56.8035 39.5371 57.089 39.7008C57.3745 39.8646 57.5937 40.065 57.7467 40.3009C57.8997 40.538 57.9762 40.8438 57.9762 41.2183Z" fill="#019DE3"/>
<path d="M63.8409 43.0886H58.8794V42.2308L62.1772 37.6098H59.0804V36.5391H63.7472V37.4862L60.5146 42.0189H63.842V43.0897L63.8409 43.0886Z" fill="#019DE3"/>
<path d="M67.8543 36.4131C68.4367 36.4131 68.9357 36.5333 69.3525 36.7738C69.7693 37.0143 70.0902 37.3556 70.314 37.7977C70.5378 38.2397 70.6508 38.7677 70.6508 39.3838V40.1293H66.2911C66.3071 40.7649 66.4772 41.2539 66.8015 41.5963C67.1258 41.9388 67.5814 42.1117 68.1672 42.1117C68.584 42.1117 68.9585 42.0716 69.2908 41.9903C69.6231 41.909 69.9668 41.7899 70.3208 41.6318V42.7622C69.9942 42.9156 69.6619 43.0279 69.3239 43.1C68.986 43.171 68.5806 43.2065 68.109 43.2065C67.4684 43.2065 66.9043 43.0817 66.419 42.8309C65.9337 42.5801 65.5535 42.2067 65.2805 41.7097C65.0076 41.2127 64.8706 40.5954 64.8706 39.8579C64.8706 39.1204 64.9939 38.5008 65.2417 37.9878C65.4895 37.4747 65.8378 37.0842 66.2865 36.8162C66.7353 36.5482 67.2583 36.4142 67.8555 36.4142L67.8543 36.4131ZM67.8543 37.461C67.4181 37.461 67.0642 37.603 66.7958 37.887C66.5275 38.171 66.3676 38.5867 66.3208 39.1353H69.2943C69.2897 38.8077 69.236 38.518 69.1321 38.2649C69.0282 38.013 68.8706 37.8148 68.6605 37.6728C68.4504 37.5308 68.1821 37.4598 67.8555 37.4598L67.8543 37.461Z" fill="#019DE3"/>
<path d="M75.6164 36.4131C76.3517 36.4131 76.925 36.6032 77.336 36.9846C77.7471 37.3648 77.9527 37.9752 77.9527 38.8158V43.0874H76.5664V39.0757C76.5664 38.5672 76.4625 38.1847 76.2535 37.9305C76.0446 37.6763 75.7226 37.5491 75.2864 37.5491C74.6526 37.5491 74.213 37.745 73.9675 38.1355C73.722 38.526 73.5987 39.0918 73.5987 39.8339V43.0886H72.2124V36.5379H73.2926L73.4879 37.4255H73.5644C73.706 37.1964 73.8818 37.0086 74.0919 36.8609C74.3021 36.7131 74.5384 36.602 74.7999 36.5265C75.0614 36.452 75.3343 36.4142 75.6175 36.4142L75.6164 36.4131Z" fill="#019DE3"/>
<path d="M80.5916 34.0293C80.804 34.0293 80.9878 34.0866 81.1431 34.2011C81.2984 34.3156 81.3761 34.5126 81.3761 34.7932C81.3761 35.0737 81.2984 35.2661 81.1431 35.3818C80.9878 35.4986 80.804 35.5559 80.5916 35.5559C80.3792 35.5559 80.1851 35.4975 80.0344 35.3818C79.8825 35.265 79.8071 35.0692 79.8071 34.7932C79.8071 34.5172 79.8825 34.3156 80.0344 34.2011C80.1862 34.0866 80.3712 34.0293 80.5916 34.0293ZM81.2756 36.5385V43.0891H79.8893V36.5385H81.2756Z" fill="#019DE3"/>
<path d="M85.8597 36.4131C86.4421 36.4131 86.9411 36.5333 87.3579 36.7738C87.7746 37.0143 88.0955 37.3556 88.3193 37.7977C88.5431 38.2397 88.6562 38.7677 88.6562 39.3838V40.1293H84.2965C84.3125 40.7649 84.4826 41.2539 84.8069 41.5963C85.1312 41.9388 85.5868 42.1117 86.1726 42.1117C86.5894 42.1117 86.9639 42.0716 87.2962 41.9903C87.6285 41.909 87.9722 41.7899 88.3262 41.6318V42.7622C87.9996 42.9156 87.6673 43.0279 87.3293 43.1C86.9913 43.171 86.586 43.2065 86.1144 43.2065C85.4738 43.2065 84.9097 43.0817 84.4244 42.8309C83.9391 42.5801 83.5588 42.2067 83.2859 41.7097C83.013 41.2127 82.876 40.5954 82.876 39.8579C82.876 39.1204 82.9993 38.5008 83.2471 37.9878C83.4949 37.4747 83.8432 37.0842 84.2919 36.8162C84.7407 36.5482 85.2637 36.4142 85.8609 36.4142L85.8597 36.4131ZM85.8597 37.461C85.4235 37.461 85.0695 37.603 84.8012 37.887C84.5329 38.171 84.373 38.5867 84.3262 39.1353H87.2996C87.2951 38.8077 87.2414 38.518 87.1375 38.2649C87.0336 38.013 86.876 37.8148 86.6659 37.6728C86.4558 37.5308 86.1874 37.4598 85.8609 37.4598L85.8597 37.461Z" fill="#019DE3"/>
<path d="M120.486 0.409639C119.478 0.229839 114.245 -0.511117 109.446 0.595164C108.621 0.785271 107.997 1.04638 107.854 1.09906C106.955 1.43575 103.878 2.68175 101.399 5.45891C101.399 5.45891 97.1521 10.2161 97.3131 19.2496C97.3176 19.4878 97.3245 19.7444 97.3245 19.7444C97.3336 20.0227 97.3507 20.2975 97.4078 21.4977C97.4706 22.8319 97.5392 25.0318 97.5346 29.1833C97.5346 29.1833 97.2799 38.1423 100.001 41.6501C100.275 42.004 100.565 42.2972 100.869 42.5674C101.595 43.2133 102.295 43.1973 102.305 43.1962C102.995 43.1744 103.477 42.6934 103.569 42.5972C104.213 41.9261 104.145 40.9836 104.075 39.4204C103.862 34.5772 104.289 33.992 104.561 33.8993C104.581 33.8924 104.806 33.8191 104.956 33.9302C105.176 34.094 105.086 34.5566 105.066 34.6711C104.908 35.6148 104.852 40.8759 107.017 42.3304C107.115 42.3956 107.955 42.974 108.691 42.6945C109.553 42.3659 109.761 41.0546 109.945 40.072C110.593 36.5997 111.061 33.8821 112.454 32.4803C113.884 31.0408 116.637 30.6091 118.43 31.531C120.969 32.8365 121.913 37.0246 122.474 39.52C122.711 40.5702 122.937 41.957 123.88 42.3246C124.596 42.6041 125.523 42.217 126.078 41.7394C126.532 41.3489 126.785 40.8553 127.042 39.9884C127.87 37.1964 127.029 34.8326 127.781 34.5085C127.818 34.4925 127.895 34.4593 127.979 34.4833C128.502 34.6322 128.351 36.6925 128.283 37.604C128.182 38.9852 127.991 39.82 128.048 41.3867C128.072 42.0532 128.13 42.5308 128.488 42.864C129.073 43.4103 130.094 43.1481 130.226 43.1148C132.609 42.5136 133.531 38.258 133.687 37.5422C134.139 35.4579 134.163 33.0037 134.172 32.0005C134.187 30.5083 134.111 28.6129 134.915 28.3083C134.969 28.2877 135.104 28.2373 135.254 28.2751C136.408 28.566 134.991 32.7953 136.995 35.8771C137.683 36.9352 139.179 38.4824 140.742 38.3439C142.302 38.2053 142.671 36.4989 144.677 36.3558C145.035 36.3306 146.311 36.2916 146.48 35.7603C146.526 35.6182 146.497 35.4236 146.657 35.2609C146.784 35.1315 147.001 35.0502 147.197 35.0926C147.402 35.1361 147.422 35.2793 147.614 35.3125C147.812 35.348 148.009 35.2346 148.094 35.1533C148.428 34.828 148.282 33.8867 147.769 33.4126C147.28 32.9579 146.568 33.0358 146.06 33.0988C144.514 33.29 144.169 34.1146 142.736 34.5303C142.259 34.6689 140.738 35.1098 139.924 34.4776C138.231 33.164 140.317 27.7712 140.861 26.366C142.176 22.9659 142.991 22.8651 143.646 20.2494C143.909 19.2027 144.468 16.4667 143.707 13.2762C142.686 8.99878 139.885 6.42204 138.859 5.49212C136.369 3.23489 131.074 2.29352 120.485 0.410784L120.486 0.409639Z" fill="#019DE3"/>
<path d="M135.349 15.4074C135.313 15.404 135.234 15.3971 135.142 15.4281C134.916 15.5013 134.802 15.7292 134.753 15.8598C134.743 15.8839 134.708 15.8839 134.699 15.8598C134.65 15.7281 134.536 15.5013 134.31 15.4281C134.217 15.3983 134.138 15.404 134.103 15.4074C133.734 15.4418 133.061 15.8861 133.017 16.4965C132.982 16.9856 133.365 17.3486 133.909 17.8639C134.216 18.1548 134.507 18.3529 134.711 18.4778C134.721 18.4835 134.731 18.4835 134.74 18.4778C134.943 18.3529 135.236 18.1548 135.543 17.8639C136.086 17.3497 136.471 16.9856 136.435 16.4965C136.39 15.8861 135.717 15.4418 135.349 15.4074Z" fill="white"/>
<path d="M114.87 11.0326C114.951 8.85902 116.328 6.43345 118.566 5.39932C119.25 5.08324 120.611 4.45451 121.982 4.90344C122.875 5.19661 123.387 5.82076 124.551 5.8471C125.066 5.85855 125.346 5.74517 125.945 5.59057C126.742 5.38557 128.556 4.91947 129.737 5.14279C131.263 5.43138 132.87 7.08508 132.999 8.72732C133.164 10.8185 130.8 11.1277 127.652 15.3375C125.63 18.0425 124.936 20.1497 122.338 21.8573C121.391 22.4803 120.398 22.9131 119.498 22.5879C118.627 22.273 118.166 21.3625 117.992 21.019C117.531 20.1085 117.705 19.5977 117.431 18.4582C117.168 17.3623 116.788 16.9305 116.283 15.9136C115.715 14.7729 114.799 12.9337 114.87 11.0326Z" fill="white"/>
</svg>
