<svg width="100" height="100" viewBox="0 0 100 100" fill="none" xmlns="http://www.w3.org/2000/svg">
<path d="M50.1095 0.109446L54.8317 25.9849L69.1934 3.94902L63.6541 29.662L85.3554 14.7994L70.3978 36.4353L96.1348 31.0088L74.0361 45.2737L99.8906 50.1094L74.0151 54.8317L96.051 69.1934L70.3381 63.6541L85.2006 85.3553L63.5647 70.3978L68.9912 96.1347L54.7263 74.0361L49.8906 99.8906L45.1683 74.0151L30.8066 96.051L36.3459 70.338L14.6447 85.2006L29.6023 63.5647L3.86527 68.9912L25.964 54.7263L0.109457 49.8906L25.9849 45.1683L3.94903 30.8066L29.662 36.3459L14.7995 14.6447L36.4353 29.6022L31.0088 3.86526L45.2737 25.9639L50.1095 0.109446Z" fill="#3C439D"/>
</svg>
