<svg width="101" height="100" viewBox="0 0 101 100" fill="none" xmlns="http://www.w3.org/2000/svg">
<path d="M99.6457 0.292038C101.137 13.575 96.9172 27.2155 86.921 37.2116C79.4471 44.6855 69.9359 48.9286 60.0602 49.9713C70.137 50.9101 79.8682 55.1733 87.484 62.7891C97.48 72.7851 101.7 86.4252 100.208 99.708C86.9252 101.2 73.2851 96.98 63.2891 86.984C56.3385 80.0334 52.181 71.3208 50.794 62.1917C49.2109 70.8155 45.13 79.0026 38.5311 85.6015C28.5351 95.5975 14.8951 99.8169 1.61226 98.3254C0.120742 85.0426 4.34021 71.4025 14.3362 61.4065C20.6147 55.128 28.3308 51.1279 36.4931 49.3908C28.0286 47.752 20.0048 43.6997 13.5167 37.2116C3.52051 27.2155 -0.699675 13.575 0.792038 0.292038C14.075 -1.19967 27.7155 3.02051 37.7116 13.0167C44.6838 19.9889 48.845 28.734 50.2188 37.8941C51.5927 28.734 55.7539 19.9889 62.7261 13.0167C72.7222 3.02051 86.3626 -1.19968 99.6457 0.292038Z" fill="#019DE3"/>
</svg>
